<svg width="56" height="43" viewBox="0 0 56 43" fill="none" xmlns="http://www.w3.org/2000/svg">
<path d="M0 10.8019V43H9.62733V20.336H35.9434V43H46V10.8019L22.9988 0L0 10.8019Z" fill="white"/>
<path d="M16 27H12V31H16V27Z" fill="white"/>
<path d="M16 33H12V37H16V33Z" fill="white"/>
<path d="M16 39H12V43H16V39Z" fill="white"/>
<path d="M22 39H18V43H22V39Z" fill="white"/>
<path d="M22 33H18V37H22V33Z" fill="white"/>
<path d="M28 39H24V43H28V39Z" fill="white"/>
<path d="M35 1.84741L36.9599 1L56 10.1782V43H48.5794V8.48341L35 1.84741Z" fill="white"/>
</svg>
